<?xml version="1.0" encoding="UTF-8" standalone="no"?>
<!-- Created with Inkscape (http://www.inkscape.org/) -->

<svg
   width="153.38766mm"
   height="54.629478mm"
   viewBox="0 0 153.38766 54.629478"
   version="1.1"
   id="svg306178"
   inkscape:version="1.1.2 (0a00cf5339, 2022-02-04)"
   sodipodi:docname="maxkowdev.svg"
   xmlns:inkscape="http://www.inkscape.org/namespaces/inkscape"
   xmlns:sodipodi="http://sodipodi.sourceforge.net/DTD/sodipodi-0.dtd"
   xmlns="http://www.w3.org/2000/svg"
   xmlns:svg="http://www.w3.org/2000/svg">
  <sodipodi:namedview
     id="namedview306180"
     pagecolor="#ffffff"
     bordercolor="#666666"
     borderopacity="1.0"
     inkscape:pageshadow="2"
     inkscape:pageopacity="0.0"
     inkscape:pagecheckerboard="0"
     inkscape:document-units="mm"
     showgrid="false"
     fit-margin-top="0"
     fit-margin-left="0"
     fit-margin-right="0"
     fit-margin-bottom="0"
     inkscape:zoom="0.91591557"
     inkscape:cx="-92.257412"
     inkscape:cy="103.17545"
     inkscape:window-width="2560"
     inkscape:window-height="1348"
     inkscape:window-x="0"
     inkscape:window-y="32"
     inkscape:window-maximized="1"
     inkscape:current-layer="layer1" />
  <defs
     id="defs306175" />
  <g
     inkscape:label="Layer 1"
     inkscape:groupmode="layer"
     id="layer1"
     transform="translate(-28.30617,-121.18526)">
    <g
       id="g306413"
       transform="translate(-165.38518,-28.86806)">
      <path
         d="m 213.74153,204.6828 q -4.18439,0 -6.62528,-2.32465 -2.38277,-2.26655 -2.09219,-6.39282 l 0.87175,-11.44894 q 0.23246,-3.08017 -0.92987,-4.41685 -1.10421,-1.33668 -4.88178,-1.33668 h -6.39281 v -2.67336 h 6.39281 q 3.60322,0 4.82367,-1.27856 1.27856,-1.33668 0.98798,-4.53309 l -0.87175,-11.50706 q -0.29058,-4.12627 2.09219,-6.39281 2.44089,-2.32466 6.62528,-2.32466 h 3.1964 v 2.61525 h -3.1964 q -2.67336,0 -4.35874,1.62726 -1.68537,1.62726 -1.45291,4.47496 l 0.87175,11.50706 q 0.23246,2.78959 -0.98798,4.64932 -1.22045,1.85973 -3.42887,2.44089 2.20842,0.52305 3.42887,2.4409 1.22044,1.91784 0.98798,4.70743 l -0.87175,11.44894 q -0.23246,2.84771 1.45291,4.47497 1.68538,1.62727 4.35874,1.62727 h 3.1964 v 2.61523 z"
         style="font-weight:100;font-size:214.707px;line-height:1.25;font-family:'JetBrainsMonoNL Nerd Font';-inkscape-font-specification:'JetBrainsMonoNL Nerd Font Thin';stroke-width:1.45291"
         id="path305367-1-1" />
      <path
         d="m 323.83243,204.6828 v -2.61523 h 3.13829 q 2.73147,0 4.35873,-1.62727 1.68538,-1.62726 1.45291,-4.47497 l -0.81363,-11.44894 q -0.17435,-2.78959 0.98798,-4.70743 1.22045,-1.91785 3.42887,-2.4409 -2.20842,-0.58116 -3.42887,-2.44089 -1.16233,-1.85973 -0.98798,-4.64932 l 0.81363,-11.50706 q 0.23247,-2.8477 -1.45291,-4.47496 -1.62726,-1.62726 -4.35873,-1.62726 h -3.13829 v -2.61525 h 3.13829 q 4.18438,0 6.56716,2.32466 2.44089,2.26654 2.15031,6.39281 l -0.81364,11.50706 q -0.23246,3.19641 0.98799,4.53309 1.27856,1.27856 4.82366,1.27856 h 6.39282 v 2.67336 h -6.39282 q -3.71945,0 -4.88178,1.33668 -1.16233,1.33668 -0.92987,4.41685 l 0.81364,11.44894 q 0.29058,4.12627 -2.15031,6.39282 -2.38278,2.32465 -6.56716,2.32465 z"
         style="font-weight:100;font-size:214.707px;line-height:1.25;font-family:'JetBrainsMonoNL Nerd Font';-inkscape-font-specification:'JetBrainsMonoNL Nerd Font Thin';stroke-width:1.45291"
         id="path305369-11-5" />
      <path
         d="m 216.8246,184.8441 h 0.66446 v -8.10646 c 1.24035,-1.41752 2.34777,-2.12629 3.36662,-2.12629 1.7276,0 2.52496,1.15173 2.52496,3.49951 v 6.73324 h 0.66447 v -8.10646 c 1.24032,-1.41752 2.30346,-2.12629 3.36661,-2.12629 1.72761,0 2.52497,1.15173 2.52497,3.49951 v 6.73324 h 0.66447 v -6.82183 c 0,-2.74645 -1.06315,-4.03108 -3.14513,-4.03108 -1.19604,0 -2.39208,0.84166 -3.6324,2.21488 -0.3544,-1.32893 -1.19604,-2.21488 -2.92365,-2.21488 -1.15173,0 -2.39208,0.84166 -3.36661,1.94909 h -0.0444 l -0.0885,-1.6833 h -0.57588 z"
         style="font-weight:200;font-size:10.5833px;line-height:1.25;font-family:'Source Sans Pro';-inkscape-font-specification:'Source Sans Pro Ultra-Light';stroke-width:0.55372"
         id="path288832-9-7" />
      <path
         d="m 235.82825,185.10989 c 1.41752,0 2.74645,-0.79736 3.85388,-1.68331 h 0.0444 l 0.0885,1.41752 h 0.57587 v -6.86613 c 0,-2.12628 -0.75307,-3.98678 -3.23372,-3.98678 -1.72761,0 -3.18943,0.84166 -3.85389,1.37324 l 0.35437,0.48726 c 0.66446,-0.48726 1.94909,-1.24034 3.45522,-1.24034 2.21488,0 2.65784,1.90481 2.61356,3.6324 -4.78413,0.53157 -6.95473,1.63902 -6.95473,4.00893 0,2.01554 1.41752,2.85721 3.05654,2.85721 z m 0.0444,-0.62018 c -1.28463,0 -2.39205,-0.62017 -2.39205,-2.25917 0,-1.8162 1.59471,-2.87934 6.24595,-3.41091 v 3.85388 c -1.41752,1.19603 -2.56925,1.8162 -3.8539,1.8162 z"
         style="font-weight:200;font-size:10.5833px;line-height:1.25;font-family:'Source Sans Pro';-inkscape-font-specification:'Source Sans Pro Ultra-Light';stroke-width:0.55372"
         id="path288834-3-1" />
      <path
         d="m 242.51717,184.8441 h 0.70877 l 1.94909,-3.05654 c 0.44298,-0.66446 0.84166,-1.32893 1.28462,-1.94909 h 0.0885 c 0.44299,0.62016 0.88597,1.28463 1.28465,1.94909 l 1.99338,3.05654 h 0.75307 l -3.63242,-5.4929 3.32233,-5.09422 h -0.70877 l -1.77189,2.83504 c -0.39868,0.57587 -0.75306,1.15173 -1.15174,1.72761 h -0.0885 c -0.39865,-0.57588 -0.79733,-1.15174 -1.15173,-1.72761 l -1.8162,-2.83504 h -0.75305 l 3.32233,5.04991 z"
         style="font-weight:200;font-size:10.5833px;line-height:1.25;font-family:'Source Sans Pro';-inkscape-font-specification:'Source Sans Pro Ultra-Light';stroke-width:0.55372"
         id="path288836-7-9" />
      <path
         d="m 263.07112,184.8441 h -2.63569 v -4.18613 l -2.03768,-2.56925 -3.87605,6.75538 h -2.90148 l 5.20495,-8.81523 -4.4519,-5.67007 h 2.92363 l 5.07208,6.51174 h 0.0665 v -6.51174 h 2.6357 z"
         style="font-weight:600;font-size:10.5833px;line-height:1.25;font-family:'Source Sans Pro';-inkscape-font-specification:'Source Sans Pro Semi-Bold';stroke-width:0.55372"
         id="path288838-1-0" />
      <path
         d="m 269.95953,185.10989 c 2.70214,0 5.18281,-2.08199 5.18281,-5.69224 0,-3.6324 -2.48067,-5.73655 -5.18281,-5.73655 -2.72431,0 -5.20497,2.10415 -5.20497,5.73655 0,3.61025 2.48066,5.69224 5.20497,5.69224 z m 0,-2.12629 c -1.57256,0 -2.50281,-1.41752 -2.50281,-3.56595 0,-2.17058 0.93025,-3.58812 2.50281,-3.58812 1.57255,0 2.50281,1.41754 2.50281,3.58812 0,2.14843 -0.93026,3.56595 -2.50281,3.56595 z"
         style="font-weight:600;font-size:10.5833px;line-height:1.25;font-family:'Source Sans Pro';-inkscape-font-specification:'Source Sans Pro Semi-Bold';stroke-width:0.55372"
         id="path288840-2-2" />
      <path
         d="m 278.19884,184.8441 h 3.14513 l 1.10745,-5.04992 c 0.22148,-0.97455 0.39868,-1.8605 0.55371,-3.27802 h 0.0885 c 0.19923,1.41752 0.37653,2.30347 0.59802,3.27802 l 1.10744,5.04992 h 3.25586 l 2.7686,-10.87505 h -2.43636 l -1.28463,5.64794 c -0.22148,0.97453 -0.35437,1.94909 -0.55371,3.23372 h -0.0885 c -0.19923,-1.28463 -0.39866,-2.25919 -0.6423,-3.23372 l -1.37324,-5.64794 h -2.65784 l -1.32893,5.64794 c -0.22148,0.97453 -0.39868,1.94909 -0.59802,3.23372 h -0.0885 c -0.15508,-1.28463 -0.33224,-2.25919 -0.55372,-3.23372 l -1.28464,-5.64794 h -2.61356 z"
         style="font-weight:600;font-size:10.5833px;line-height:1.25;font-family:'Source Sans Pro';-inkscape-font-specification:'Source Sans Pro Semi-Bold';stroke-width:0.55372"
         id="path288842-3-3" />
      <path
         d="m 292.0861,184.8441 h 4.00894 c 4.29686,0 6.9547,-2.48067 6.9547,-7.3091 0,-4.80629 -2.65784,-7.1762 -7.0876,-7.1762 h -3.87604 z m 2.6357,-2.12629 v -10.21058 h 1.06315 c 2.87934,0 4.5405,1.48396 4.5405,5.02777 0,3.56595 -1.66116,5.18281 -4.5405,5.18281 z"
         style="font-weight:600;font-size:10.5833px;line-height:1.25;font-family:'Source Sans Pro';-inkscape-font-specification:'Source Sans Pro Semi-Bold';stroke-width:0.55372"
         id="path288844-5-9" />
      <path
         d="m 309.25139,185.10989 c 1.41752,0 2.74645,-0.39868 3.76529,-1.15174 l -0.88594,-1.63902 c -0.75308,0.48727 -1.59472,0.75306 -2.52497,0.75306 -1.72761,0 -2.87935,-1.06313 -3.14513,-2.87935 h 6.86611 c 0.0885,-0.39866 0.1329,-0.79734 0.1329,-1.32891 0,-3.05654 -1.5947,-5.18283 -4.54049,-5.18283 -2.54711,0 -5.02777,2.17059 -5.02777,5.7144 0,3.6324 2.34777,5.71439 5.36,5.71439 z m -2.79075,-6.86614 c 0.22148,-1.639 1.28462,-2.52495 2.52497,-2.52495 1.41752,0 2.17057,0.93026 2.17057,2.52495 z"
         style="font-weight:600;font-size:10.5833px;line-height:1.25;font-family:'Source Sans Pro';-inkscape-font-specification:'Source Sans Pro Semi-Bold';stroke-width:0.55372"
         id="path288846-7-8" />
      <path
         d="m 317.20277,184.8441 h 3.01224 l 3.69885,-10.89721 h -2.52497 l -1.70545,5.60365 c -0.28793,1.08528 -0.62016,2.19274 -0.90811,3.30017 h -0.0885 c -0.31009,-1.10743 -0.62016,-2.21489 -0.93025,-3.30017 l -1.68331,-5.60365 h -2.65786 z"
         style="font-weight:600;font-size:10.5833px;line-height:1.25;font-family:'Source Sans Pro';-inkscape-font-specification:'Source Sans Pro Semi-Bold';stroke-width:0.55372"
         id="path288848-02-0" />
    </g>
  </g>
</svg>
